<svg width="255" height="154" viewBox="0 0 255 154" fill="none" xmlns="http://www.w3.org/2000/svg">
<g clip-path="url(#clip0_187_813)">
<path d="M28.3955 9.34719C28.4005 9.05198 28.3458 8.7588 28.2347 8.48519C28.1236 8.21158 27.9584 7.96317 27.7489 7.75482C27.5395 7.54648 27.2901 7.38248 27.0158 7.27264C26.7414 7.1628 26.4477 7.10938 26.1521 7.11557H9.37737V25.4075H23.9362V32.5231H9.37737V63.9761H26.1704C26.4667 63.9824 26.7613 63.9287 27.0363 63.8183C27.3113 63.7079 27.561 63.543 27.7706 63.3337C27.9802 63.1244 28.1452 62.8749 28.2557 62.6002C28.3663 62.3255 28.42 62.0313 28.4138 61.7354V71.0917H0.0285645C0.338102 71.0979 0.645709 71.0416 0.932921 70.9262C1.22013 70.8107 1.48103 70.6385 1.69995 70.4198C1.91887 70.2011 2.0913 69.9405 2.20689 69.6536C2.32249 69.3668 2.37886 69.0595 2.37263 68.7503V2.33223C2.37891 2.02346 2.3225 1.71661 2.2068 1.43022C2.0911 1.14382 1.91852 0.883814 1.69947 0.665865C1.48041 0.447916 1.21942 0.276549 0.932243 0.162108C0.645068 0.0476658 0.337661 -0.00747688 0.0285645 -1.34122e-06H28.4138L28.3955 9.34719Z" fill="white"/>
<path d="M69.6994 61.6896V71.046H29.7129C30.0224 71.0522 30.33 70.9959 30.6172 70.8804C30.9045 70.7649 31.1653 70.5927 31.3843 70.374C31.6032 70.1554 31.7756 69.8948 31.8912 69.6079C32.0068 69.321 32.0632 69.0138 32.057 68.7046V2.33223C32.0632 2.02346 32.0068 1.71661 31.8911 1.43022C31.7754 1.14382 31.6028 0.883814 31.3838 0.665865C31.1647 0.447916 30.9037 0.276549 30.6166 0.162108C30.3294 0.0476658 30.022 -0.00747688 29.7129 -1.34134e-06H41.3142C41.0125 0.00228064 40.7142 0.0648406 40.4371 0.184004C40.16 0.303167 39.9095 0.476528 39.7004 0.69386C39.4914 0.911192 39.328 1.1681 39.2199 1.44947C39.1117 1.73085 39.0611 2.031 39.0708 2.33223V64.031H67.4561C68.0625 64.0119 68.6372 63.7559 69.0566 63.3181C69.4761 62.8803 69.7069 62.2956 69.6994 61.6896ZM69.6994 9.34719C69.7057 9.05242 69.6521 8.75943 69.5421 8.48586C69.432 8.21229 69.2677 7.96379 69.0589 7.75531C68.8502 7.54683 68.6014 7.38268 68.3275 7.27274C68.0537 7.16279 67.7603 7.10933 67.4652 7.11557H50.6722V25.4075H65.231V32.5231H50.6722V50.6138H67.4652C67.7608 50.6188 68.0543 50.5642 68.3282 50.4532C68.6021 50.3423 68.8508 50.1773 69.0594 49.9681C69.268 49.7589 69.4322 49.5098 69.5422 49.2357C69.6521 48.9617 69.7056 48.6683 69.6994 48.3731V57.7294H43.6583V2.33223C43.6645 2.02346 43.6081 1.71661 43.4924 1.43022C43.3767 1.14382 43.2042 0.883814 42.9851 0.665865C42.766 0.447916 42.5051 0.276549 42.2179 0.162108C41.9307 0.0476658 41.6233 -0.00747688 41.3142 -1.34134e-06H69.6994V9.34719Z" fill="white"/>
<path d="M106.536 28.8647C106.534 36.031 103.868 42.9412 99.0545 48.2557C94.2415 53.5701 87.6243 56.9104 80.4859 57.6288V68.7046C80.4696 69.0078 80.5157 69.3112 80.6214 69.596C80.7271 69.8807 80.89 70.1408 81.1003 70.3602C81.3105 70.5796 81.5635 70.7537 81.8436 70.8716C82.1238 70.9896 82.4252 71.0489 82.7292 71.046H71.1279C71.4375 71.0522 71.7451 70.9959 72.0323 70.8804C72.3195 70.7649 72.5804 70.5927 72.7993 70.374C73.0182 70.1554 73.1907 69.8948 73.3063 69.6079C73.4219 69.321 73.4782 69.0138 73.472 68.7046V2.33223C73.4783 2.02346 73.4219 1.71661 73.3062 1.43022C73.1905 1.14382 73.0179 0.883814 72.7988 0.665865C72.5798 0.447916 72.3188 0.276549 72.0316 0.162108C71.7444 0.0476658 71.437 -0.00747688 71.1279 -1.34134e-06H77.5375C85.2088 0.0071755 92.5653 3.04738 97.9992 8.45613C103.433 13.8649 106.502 21.2023 106.536 28.8647ZM99.4124 28.8647C99.4024 23.5829 97.4812 18.4828 94.003 14.5044C90.5249 10.5261 85.7242 7.93761 80.4859 7.21617V50.6138C85.7366 49.879 90.5443 47.2729 94.0226 43.2759C97.5008 39.2789 99.4151 34.1606 99.4124 28.8647Z" fill="white"/>
<path d="M144.701 71.0459H133.099C133.401 71.0425 133.699 70.9788 133.976 70.8585C134.252 70.7382 134.502 70.5638 134.71 70.3456C134.919 70.1275 135.081 69.8699 135.188 69.588C135.295 69.3062 135.344 69.0058 135.333 68.7046V57.83H116.306V68.7046C116.296 69.0062 116.347 69.3068 116.455 69.5887C116.563 69.8706 116.726 70.1281 116.935 70.3462C117.144 70.5642 117.395 70.7384 117.672 70.8586C117.949 70.9788 118.247 71.0424 118.55 71.0459H106.948C107.257 71.0522 107.565 70.9959 107.851 70.8803C108.138 70.7647 108.398 70.5924 108.617 70.3736C108.835 70.1547 109.006 69.8941 109.121 69.6072C109.235 69.3204 109.291 69.0133 109.283 68.7046V2.33221C109.289 2.02423 109.233 1.71816 109.118 1.43239C109.003 1.14662 108.831 0.887028 108.613 0.669208C108.395 0.451389 108.135 0.279825 107.849 0.164823C107.563 0.0498208 107.257 -0.00624522 106.948 -2.14731e-05H118.55C118.248 0.00226051 117.95 0.0648205 117.672 0.183984C117.395 0.303147 117.145 0.476508 116.936 0.69384C116.727 0.911172 116.563 1.16808 116.455 1.44946C116.347 1.73083 116.296 2.03098 116.306 2.33221V50.7144H135.333V2.33221C135.343 2.03174 135.293 1.73234 135.185 1.45156C135.078 1.17079 134.915 0.914285 134.707 0.697078C134.499 0.47987 134.25 0.306324 133.974 0.186621C133.697 0.0669191 133.4 0.00347147 133.099 -2.14731e-05H144.701C144.399 0.00226051 144.101 0.0648205 143.823 0.183984C143.546 0.303147 143.296 0.476508 143.087 0.69384C142.878 0.911172 142.714 1.16808 142.606 1.44946C142.498 1.73083 142.447 2.03098 142.457 2.33221V68.7046C142.447 69.0062 142.498 69.3068 142.606 69.5887C142.714 69.8706 142.877 70.1281 143.086 70.3462C143.295 70.5642 143.546 70.7384 143.823 70.8586C144.1 70.9788 144.398 71.0424 144.701 71.0459Z" fill="white"/>
<path d="M171.053 71.046C171.552 71.0932 172.052 70.9593 172.46 70.6687C172.869 70.3782 173.159 69.9505 173.278 69.4637V57.9307H154.049L153.949 69.3174C154.069 69.8161 154.356 70.259 154.762 70.5732C155.168 70.8873 155.669 71.0541 156.183 71.046H144.7C145.218 71.0719 145.728 70.9118 146.138 70.5947C146.548 70.2777 146.83 69.8246 146.935 69.3174L147.035 16.664C147.137 12.3108 148.94 8.17028 152.059 5.12754C155.177 2.08481 159.364 0.381348 163.723 0.381348C168.082 0.381348 172.269 2.08481 175.387 5.12754C178.506 8.17028 180.309 12.3108 180.411 16.664L180.31 69.2168C180.407 69.7373 180.686 70.2066 181.097 70.5414C181.507 70.8762 182.023 71.055 182.553 71.046H171.053ZM154.049 16.664V50.8151H173.278L173.388 16.664C173.391 14.7551 172.826 12.8883 171.766 11.3006C170.705 9.7129 169.195 8.47592 167.429 7.74675C165.663 7.01758 163.72 6.82911 161.846 7.20526C159.972 7.58141 158.253 8.50522 156.906 9.85939C155.996 10.7435 155.275 11.8018 154.784 12.971C154.293 14.1402 154.043 15.3962 154.049 16.664Z" fill="white"/>
<path d="M220.507 71.0459H211.149V26.3221C211.157 21.2158 209.137 16.315 205.532 12.6941C201.928 9.07314 197.033 7.02755 191.921 7.00577V69.0063C191.931 69.2883 191.998 69.5653 192.117 69.8212C192.236 70.0771 192.405 70.3067 192.614 70.4966C192.823 70.6865 193.067 70.8329 193.334 70.9273C193.6 71.0216 193.882 71.0619 194.164 71.0459H182.554C183.121 71.0707 183.674 70.8699 184.093 70.4876C184.512 70.1052 184.762 69.5725 184.788 69.0063V2.03035C184.779 1.74921 184.713 1.47276 184.595 1.21739C184.477 0.962024 184.309 0.732908 184.1 0.543601C183.892 0.354294 183.648 0.208642 183.382 0.11526C183.116 0.0218783 182.835 -0.0173304 182.554 -5.55837e-05H191.811C195.443 -0.00665716 199.037 0.739345 202.365 2.1908C205.694 3.64226 208.685 5.76761 211.149 8.43254V2.03035C211.139 1.74879 211.072 1.47215 210.953 1.21674C210.834 0.961322 210.665 0.732289 210.456 0.543099C210.247 0.353908 210.002 0.208385 209.736 0.115106C209.47 0.0218279 209.188 -0.0173255 208.906 -5.55837e-05H220.507C220.226 -0.0173255 219.944 0.0218279 219.678 0.115106C219.411 0.208385 219.167 0.353908 218.958 0.543099C218.749 0.732289 218.579 0.961322 218.46 1.21674C218.341 1.47215 218.275 1.74879 218.264 2.03035V69.0063C218.258 69.2933 218.314 69.5781 218.428 69.8417C218.541 70.1054 218.71 70.3417 218.922 70.5349C219.135 70.7281 219.386 70.8736 219.659 70.9617C219.933 71.0499 220.222 71.0786 220.507 71.0459Z" fill="white"/>
<path d="M255 0V9.34719C255.016 9.04471 254.97 8.7421 254.865 8.45796C254.76 8.17383 254.598 7.91415 254.389 7.69488C254.179 7.47561 253.927 7.30139 253.648 7.18289C253.369 7.0644 253.069 7.00414 252.766 7.00582H241.952V68.7046C241.944 69.0133 241.999 69.3204 242.114 69.6072C242.229 69.8941 242.4 70.1548 242.618 70.3736C242.837 70.5924 243.097 70.7648 243.384 70.8803C243.67 70.9959 243.977 71.0522 244.287 71.046H232.612C232.922 71.0522 233.229 70.9959 233.516 70.8804C233.804 70.765 234.065 70.5927 234.283 70.374C234.502 70.1554 234.675 69.8948 234.79 69.6079C234.906 69.321 234.962 69.0138 234.956 68.7046V7.00582H224.17C223.86 6.9996 223.553 7.0559 223.265 7.17136C222.978 7.28683 222.717 7.45906 222.498 7.67773C222.279 7.8964 222.107 8.15699 221.991 8.44387C221.876 8.73075 221.819 9.03801 221.826 9.34719V0H255Z" fill="white"/>
<path d="M66.7054 106.112V99.5083C66.7054 96.9735 65.6973 94.5424 63.9028 92.7501C62.1083 90.9577 59.6745 89.9507 57.1368 89.9507C54.5991 89.9507 52.1653 90.9577 50.3708 92.7501C48.5763 94.5424 47.5682 96.9735 47.5682 99.5083V137.428C47.6028 139.642 48.4029 141.777 49.8331 143.471C51.2632 145.164 53.2355 146.311 55.4155 146.718C57.5956 147.125 59.8494 146.766 61.7952 145.703C63.7409 144.64 65.2589 142.938 66.0919 140.885H57.1368V133.87H73.8291V137.428C73.7272 141.769 71.9291 145.898 68.8192 148.932C65.7093 151.966 61.5345 153.665 57.1872 153.665C52.8398 153.665 48.665 151.966 45.5551 148.932C42.4452 145.898 40.6471 141.769 40.5452 137.428V99.5083C40.6471 95.1671 42.4452 91.0381 45.5551 88.0038C48.665 84.9695 52.8398 83.2708 57.1872 83.2708C61.5345 83.2708 65.7093 84.9695 68.8192 88.0038C71.9291 91.0381 73.7272 95.1671 73.8291 99.5083V108.352H64.462C64.7583 108.359 65.0528 108.305 65.3278 108.195C65.6028 108.084 65.8526 107.919 66.0622 107.71C66.2718 107.501 66.4368 107.251 66.5473 106.976C66.6578 106.702 66.7116 106.408 66.7054 106.112Z" fill="white"/>
<path d="M115.912 123.708V153.991H104.824C105.414 154.026 105.997 153.848 106.467 153.491C106.937 153.134 107.264 152.62 107.388 152.043L107.507 123.69C101.43 123.663 95.5916 126.045 91.271 130.313C86.9504 134.58 84.5009 140.385 84.4597 146.454V151.942C84.584 152.551 84.9235 153.095 85.4161 153.474C85.9086 153.854 86.5214 154.044 87.1425 154.009H76.0632V105.133C76.0522 102.511 76.563 99.9138 77.5659 97.4911C78.5687 95.0684 80.0437 92.869 81.905 91.0207C85.6864 87.3453 90.7574 85.2937 96.0335 85.3045C100.075 85.2862 104.025 86.5056 107.351 88.7982C108.328 89.4644 109.225 90.2408 110.025 91.1122C113.269 94.2827 115.294 98.4911 115.748 103.002C115.748 103.734 115.876 104.337 115.876 105.069V115.285C126.131 114.27 129.116 106.505 138.392 93.1151L145.232 82.9082H155.121C152.438 82.9082 153.097 86.8044 153.097 86.8044L145.937 94.3864C136.46 106.962 136.322 111.535 125.875 120.681C123.595 122.51 119.511 123.635 115.912 123.708ZM107.351 103.514C107.043 101.41 106.158 99.4328 104.794 97.8003C103.43 96.1678 101.641 94.944 99.6239 94.2643C97.607 93.5845 95.4411 93.4754 93.366 93.9489C91.2908 94.4224 89.3872 95.4602 87.8659 96.9473C86.8038 98.0196 85.966 99.2924 85.4016 100.692C84.8373 102.091 84.5575 103.588 84.5787 105.096L84.4597 125.254C87.3906 122.117 90.9338 119.614 94.8709 117.897C98.808 116.181 103.055 115.289 107.351 115.276V103.514Z" fill="white"/>
<path d="M155.34 153.991H143.739C144.04 153.987 144.337 153.924 144.613 153.804C144.889 153.684 145.139 153.511 145.347 153.294C145.555 153.077 145.718 152.82 145.825 152.539C145.933 152.258 145.983 151.959 145.973 151.659V94.4231L136.515 108.453L126.946 94.4231V151.659C126.936 151.96 126.987 152.26 127.095 152.541C127.203 152.823 127.367 153.08 127.576 153.297C127.785 153.514 128.035 153.688 128.312 153.807C128.589 153.926 128.888 153.989 129.189 153.991H117.588C117.896 153.997 118.203 153.941 118.489 153.826C118.775 153.711 119.035 153.539 119.253 153.322C119.471 153.104 119.643 152.844 119.758 152.558C119.873 152.273 119.929 151.967 119.923 151.659V85.2771C119.931 84.9683 119.875 84.6613 119.761 84.3744C119.646 84.0876 119.475 83.8269 119.256 83.6081C119.038 83.3893 118.778 83.2169 118.491 83.1013C118.204 82.9858 117.897 82.9294 117.588 82.9357H127.66L136.515 95.8498L145.268 82.9357H155.34C155.038 82.9392 154.74 83.0029 154.463 83.1231C154.186 83.2432 153.935 83.4174 153.726 83.6355C153.517 83.8535 153.354 84.1111 153.246 84.3929C153.138 84.6748 153.087 84.9754 153.097 85.2771V151.659C153.087 151.96 153.138 152.26 153.246 152.541C153.354 152.823 153.518 153.08 153.727 153.297C153.936 153.514 154.186 153.688 154.463 153.807C154.741 153.926 155.039 153.989 155.34 153.991Z" fill="white"/>
<path d="M183.726 92.3286C183.733 92.0331 183.681 91.7391 183.571 91.4645C183.462 91.1898 183.297 90.9402 183.089 90.7307C182.88 90.5213 182.63 90.3563 182.356 90.2458C182.081 90.1353 181.787 90.0816 181.491 90.0878H164.698V108.38H179.248V115.495H164.698V146.903H181.519C181.814 146.909 182.107 146.855 182.381 146.745C182.655 146.636 182.904 146.471 183.113 146.263C183.321 146.054 183.486 145.806 183.596 145.532C183.706 145.259 183.759 144.966 183.753 144.671V154.018H155.368C155.677 154.026 155.984 153.971 156.272 153.856C156.559 153.742 156.82 153.57 157.039 153.352C157.258 153.134 157.43 152.874 157.546 152.588C157.662 152.302 157.718 151.995 157.712 151.686V85.2771C157.718 84.9679 157.662 84.6606 157.546 84.3738C157.431 84.0869 157.258 83.8263 157.039 83.6076C156.82 83.3889 156.559 83.2167 156.272 83.1012C155.985 82.9858 155.677 82.9295 155.368 82.9357H183.753L183.726 92.3286Z" fill="white"/>
</g>
<defs>
<clipPath id="clip0_187_813">
<rect width="255" height="154" fill="white"/>
</clipPath>
</defs>
</svg>
