<svg width="255" height="154" viewBox="0 0 255 154" fill="none" xmlns="http://www.w3.org/2000/svg">
<g clip-path="url(#clip0_216_552)">
<path d="M28.3669 9.34719C28.3719 9.05198 28.3172 8.7588 28.2061 8.48519C28.095 8.21158 27.9298 7.96317 27.7204 7.75482C27.5109 7.54648 27.2616 7.38248 26.9872 7.27264C26.7128 7.1628 26.4191 7.10938 26.1236 7.11557H9.34881V25.4075H23.9077V32.5231H9.34881V63.9761H26.1419C26.4382 63.9824 26.7327 63.9287 27.0077 63.8183C27.2827 63.7079 27.5325 63.543 27.7421 63.3337C27.9516 63.1244 28.1166 62.8749 28.2272 62.6002C28.3377 62.3255 28.3915 62.0313 28.3852 61.7354V71.0917H0C0.309538 71.0979 0.617145 71.0416 0.904356 70.9262C1.19157 70.8107 1.45246 70.6385 1.67138 70.4198C1.8903 70.2011 2.06273 69.9405 2.17833 69.6536C2.29392 69.3668 2.3503 69.0595 2.34407 68.7503V2.33223C2.35034 2.02346 2.29393 1.71661 2.17824 1.43022C2.06254 1.14382 1.88996 0.883814 1.6709 0.665865C1.45185 0.447916 1.19085 0.276549 0.903679 0.162108C0.616504 0.0476658 0.309096 -0.00747688 0 -1.34122e-06H28.3852L28.3669 9.34719Z" fill="white"/>
<path d="M69.6709 61.6896V71.0459H29.6843C29.9939 71.0522 30.3015 70.9959 30.5887 70.8804C30.8759 70.7649 31.1368 70.5927 31.3557 70.374C31.5746 70.1554 31.7471 69.8948 31.8626 69.6079C31.9782 69.321 32.0346 69.0138 32.0284 68.7046V2.33223C32.0347 2.02346 31.9782 1.71661 31.8625 1.43022C31.7469 1.14382 31.5743 0.883814 31.3552 0.665865C31.1362 0.447916 30.8752 0.276549 30.588 0.162108C30.3008 0.0476658 29.9934 -0.00747688 29.6843 -1.34135e-06H41.2856C40.9839 0.00228064 40.6857 0.0648406 40.4085 0.184004C40.1314 0.303167 39.8809 0.476528 39.6719 0.69386C39.4628 0.911192 39.2994 1.1681 39.1913 1.44947C39.0832 1.73085 39.0325 2.031 39.0423 2.33223V64.031H67.4275C68.0339 64.0119 68.6086 63.7559 69.0281 63.3181C69.4476 62.8803 69.6784 62.2956 69.6709 61.6896V61.6896ZM69.6709 9.34719C69.6771 9.05242 69.6236 8.75943 69.5135 8.48586C69.4034 8.21229 69.2391 7.96379 69.0304 7.75531C68.8217 7.54683 68.5729 7.38268 68.299 7.27274C68.0251 7.16279 67.7318 7.10933 67.4367 7.11557H50.6436V25.4075H65.2025V32.5231H50.6436V50.6138H67.4367C67.7322 50.6188 68.0257 50.5642 68.2997 50.4532C68.5736 50.3423 68.8223 50.1773 69.0309 49.9681C69.2394 49.7589 69.4036 49.5098 69.5136 49.2357C69.6236 48.9617 69.6771 48.6683 69.6709 48.3731V57.7294H43.6297V2.33223C43.636 2.02346 43.5796 1.71661 43.4639 1.43022C43.3482 1.14382 43.1756 0.883814 42.9565 0.665865C42.7375 0.447916 42.4765 0.276549 42.1893 0.162108C41.9021 0.0476658 41.5947 -0.00747688 41.2856 -1.34135e-06H69.6709V9.34719Z" fill="white"/>
<path d="M106.508 28.8647C106.505 36.031 103.839 42.9412 99.026 48.2557C94.2129 53.5701 87.5958 56.9104 80.4573 57.6288V68.7046C80.4411 69.0078 80.4872 69.3112 80.5928 69.596C80.6985 69.8807 80.8615 70.1408 81.0717 70.3602C81.2819 70.5796 81.5349 70.7537 81.8151 70.8716C82.0953 70.9896 82.3967 71.0489 82.7007 71.0459H71.0994C71.4089 71.0522 71.7165 70.9959 72.0037 70.8804C72.2909 70.7649 72.5518 70.5927 72.7707 70.374C72.9897 70.1554 73.1621 69.8948 73.2777 69.6079C73.3933 69.321 73.4497 69.0138 73.4434 68.7046V2.33223C73.4497 2.02346 73.3933 1.71661 73.2776 1.43022C73.1619 1.14382 72.9893 0.883814 72.7703 0.665865C72.5512 0.447916 72.2902 0.276549 72.003 0.162108C71.7159 0.0476658 71.4085 -0.00747688 71.0994 -1.34135e-06H77.5089C85.1802 0.0071755 92.5368 3.04738 97.9706 8.45613C103.404 13.8649 106.474 21.2023 106.508 28.8647V28.8647ZM99.3839 28.8647C99.3738 23.5829 97.4526 18.4828 93.9745 14.5044C90.4963 10.5261 85.6956 7.93761 80.4573 7.21617V50.6138C85.708 49.879 90.5158 47.2729 93.994 43.2759C97.4723 39.2789 99.3866 34.1606 99.3839 28.8647V28.8647Z" fill="white"/>
<path d="M144.672 71.046H133.071C133.372 71.0425 133.67 70.9788 133.947 70.8585C134.224 70.7382 134.474 70.5639 134.682 70.3457C134.89 70.1275 135.052 69.8699 135.159 69.588C135.266 69.3062 135.316 69.0058 135.305 68.7046V57.83H116.278V68.7046C116.268 69.0063 116.318 69.3069 116.426 69.5887C116.535 69.8706 116.698 70.1281 116.907 70.3462C117.116 70.5643 117.366 70.7385 117.643 70.8586C117.92 70.9788 118.219 71.0425 118.521 71.046H106.92C107.229 71.0522 107.536 70.9959 107.823 70.8803C108.109 70.7648 108.37 70.5924 108.588 70.3736C108.806 70.1548 108.978 69.8941 109.092 69.6072C109.207 69.3204 109.262 69.0133 109.255 68.7046V2.33224C109.261 2.02426 109.205 1.71819 109.09 1.43242C108.974 1.14665 108.803 0.887058 108.585 0.669239C108.367 0.451419 108.107 0.279855 107.821 0.164853C107.534 0.0498513 107.228 -0.0062147 106.92 9.04447e-06H118.521C118.219 0.00229103 117.921 0.064851 117.644 0.184014C117.367 0.303178 117.116 0.476538 116.907 0.69387C116.698 0.911203 116.535 1.16811 116.427 1.44949C116.319 1.73086 116.268 2.03101 116.278 2.33224V50.7145H135.305V2.33224C135.315 2.03177 135.264 1.73237 135.157 1.45159C135.049 1.17082 134.887 0.914316 134.679 0.697108C134.47 0.4799 134.221 0.306354 133.945 0.186652C133.669 0.0669496 133.372 0.00350199 133.071 9.04447e-06H144.672C144.37 0.00229103 144.072 0.064851 143.795 0.184014C143.518 0.303178 143.267 0.476538 143.058 0.69387C142.849 0.911203 142.686 1.16811 142.578 1.44949C142.47 1.73086 142.419 2.03101 142.429 2.33224V68.7046C142.419 69.0063 142.47 69.3069 142.578 69.5887C142.686 69.8706 142.849 70.1281 143.058 70.3462C143.267 70.5643 143.517 70.7385 143.794 70.8586C144.071 70.9788 144.37 71.0425 144.672 71.046V71.046Z" fill="white"/>
<path d="M171.024 71.046C171.524 71.0932 172.023 70.9593 172.432 70.6687C172.84 70.3782 173.131 69.9505 173.249 69.4637V57.9307H154.021L153.92 69.3174C154.041 69.8161 154.327 70.259 154.733 70.5732C155.14 70.8873 155.641 71.0541 156.154 71.046H144.672C145.19 71.0719 145.699 70.9118 146.109 70.5948C146.519 70.2777 146.802 69.8246 146.906 69.3174L147.007 16.664C147.109 12.3108 148.912 8.17028 152.03 5.12754C155.149 2.08481 159.335 0.381348 163.695 0.381348C168.054 0.381348 172.24 2.08481 175.359 5.12754C178.477 8.17028 180.28 12.3108 180.382 16.664L180.282 69.2168C180.379 69.7373 180.658 70.2066 181.068 70.5414C181.479 70.8762 181.995 71.055 182.525 71.046H171.024ZM154.021 16.664V50.8151H173.249L173.359 16.664C173.363 14.7551 172.798 12.8883 171.737 11.3006C170.676 9.7129 169.167 8.47592 167.401 7.74675C165.634 7.01758 163.691 6.82911 161.817 7.20526C159.944 7.58141 158.224 8.50522 156.877 9.85939C155.968 10.7435 155.246 11.8018 154.755 12.971C154.264 14.1402 154.014 15.3962 154.021 16.664V16.664Z" fill="white"/>
<path d="M220.479 71.0459H211.121V26.3221C211.128 21.2159 209.108 16.315 205.504 12.6941C201.899 9.07317 197.004 7.02758 191.892 7.0058V69.0064C191.903 69.2883 191.969 69.5653 192.088 69.8212C192.207 70.0771 192.376 70.3067 192.585 70.4967C192.794 70.6866 193.039 70.833 193.305 70.9273C193.571 71.0216 193.854 71.0619 194.136 71.0459H182.525C183.092 71.0707 183.646 70.87 184.064 70.4876C184.483 70.1052 184.733 69.5725 184.759 69.0064V2.03038C184.75 1.74924 184.684 1.47279 184.566 1.21742C184.448 0.962055 184.28 0.732939 184.072 0.543631C183.863 0.354324 183.619 0.208672 183.354 0.115291C183.088 0.0219088 182.806 -0.0172999 182.525 -2.50662e-05H191.782C195.414 -0.00662665 199.008 0.739376 202.337 2.19083C205.666 3.64229 208.657 5.76764 211.121 8.43257V2.03038C211.11 1.74882 211.044 1.47218 210.925 1.21677C210.806 0.961353 210.637 0.73232 210.428 0.543129C210.218 0.353939 209.974 0.208416 209.707 0.115137C209.441 0.0218584 209.159 -0.017295 208.878 -2.50662e-05H220.479C220.197 -0.017295 219.915 0.0218584 219.649 0.115137C219.383 0.208416 219.138 0.353939 218.929 0.543129C218.72 0.73232 218.551 0.961353 218.432 1.21677C218.313 1.47218 218.246 1.74882 218.236 2.03038V69.0064C218.23 69.2933 218.286 69.5781 218.399 69.8418C218.513 70.1054 218.681 70.3417 218.894 70.5349C219.106 70.7281 219.357 70.8736 219.631 70.9618C219.904 71.0499 220.193 71.0786 220.479 71.0459V71.0459Z" fill="white"/>
<path d="M254.971 0V9.34719C254.987 9.04471 254.942 8.7421 254.836 8.45796C254.731 8.17383 254.569 7.91415 254.36 7.69488C254.151 7.47561 253.899 7.30139 253.62 7.18289C253.341 7.0644 253.04 7.00414 252.737 7.00582H241.923V68.7046C241.916 69.0133 241.971 69.3204 242.085 69.6072C242.2 69.8941 242.372 70.1548 242.59 70.3736C242.808 70.5924 243.068 70.7648 243.355 70.8803C243.642 70.9959 243.949 71.0522 244.258 71.046H232.583C232.893 71.0522 233.201 70.9959 233.488 70.8804C233.775 70.765 234.036 70.5927 234.255 70.374C234.474 70.1554 234.646 69.8948 234.762 69.6079C234.877 69.321 234.934 69.0138 234.928 68.7046V7.00582H224.141C223.832 6.9996 223.524 7.0559 223.237 7.17137C222.95 7.28683 222.689 7.45906 222.47 7.67773C222.251 7.8964 222.078 8.15699 221.963 8.44387C221.847 8.73075 221.791 9.03801 221.797 9.34719V0H254.971Z" fill="white"/>
<path d="M82.1602 106.112V99.5083C82.1602 96.9735 81.1521 94.5424 79.3576 92.7501C77.5632 90.9577 75.1294 89.9507 72.5916 89.9507C70.0539 89.9507 67.6201 90.9577 65.8256 92.7501C64.0312 94.5424 63.0231 96.9735 63.0231 99.5083V137.428C63.0576 139.642 63.8578 141.777 65.2879 143.471C66.7181 145.164 68.6903 146.311 70.8704 146.718C73.0504 147.125 75.3043 146.766 77.25 145.703C79.1958 144.64 80.7137 142.938 81.5467 140.885H72.5916V133.87H89.284V137.428C89.182 141.769 87.3839 145.898 84.274 148.932C81.1642 151.966 76.9893 153.665 72.642 153.665C68.2947 153.665 64.1198 151.966 61.0099 148.932C57.9001 145.898 56.102 141.769 56 137.428V99.5083C56.102 95.1671 57.9001 91.0381 61.0099 88.0038C64.1198 84.9695 68.2947 83.2708 72.642 83.2708C76.9893 83.2708 81.1642 84.9695 84.274 88.0038C87.3839 91.0381 89.182 95.1671 89.284 99.5083V108.352H79.9169C80.2132 108.359 80.5077 108.305 80.7827 108.195C81.0577 108.084 81.3075 107.919 81.517 107.71C81.7266 107.501 81.8916 107.251 82.0022 106.976C82.1127 106.702 82.1664 106.408 82.1602 106.112V106.112Z" fill="white"/>
<path d="M131.367 123.708V153.991H120.279C120.869 154.026 121.451 153.848 121.922 153.491C122.392 153.134 122.719 152.62 122.842 152.043L122.962 123.69C116.885 123.663 111.046 126.045 106.726 130.313C102.405 134.58 99.9557 140.385 99.9145 146.454V151.942C100.039 152.551 100.378 153.095 100.871 153.474C101.363 153.854 101.976 154.044 102.597 154.009H91.518V105.133C91.507 102.511 92.0178 99.9138 93.0207 97.4911C94.0236 95.0684 95.4985 92.869 97.3599 91.0207C101.141 87.3453 106.212 85.2937 111.488 85.3045C115.53 85.2862 119.48 86.5056 122.806 88.7982C123.783 89.4644 124.68 90.2408 125.48 91.1122C128.724 94.2827 130.749 98.4911 131.202 103.002C131.202 103.734 131.331 104.337 131.331 105.069V115.285C141.586 114.27 144.571 106.505 153.846 93.1151L160.686 82.9082H170.575C167.893 82.9082 168.552 86.8044 168.552 86.8044L161.391 94.3864C151.914 106.962 151.777 111.535 141.329 120.681C139.05 122.51 134.966 123.635 131.367 123.708ZM122.806 103.514C122.498 101.41 121.612 99.4328 120.249 97.8003C118.885 96.1678 117.096 94.944 115.079 94.2643C113.062 93.5845 110.896 93.4754 108.821 93.9489C106.746 94.4224 104.842 95.4602 103.321 96.9473C102.259 98.0196 101.421 99.2924 100.856 100.692C100.292 102.091 100.012 103.588 100.034 105.096L99.9145 125.254C102.845 122.117 106.389 119.614 110.326 117.897C114.263 116.181 118.51 115.289 122.806 115.276V103.514Z" fill="white"/>
<path d="M170.795 153.991H159.194C159.495 153.987 159.792 153.924 160.068 153.804C160.344 153.684 160.594 153.511 160.802 153.294C161.01 153.077 161.172 152.82 161.28 152.539C161.388 152.258 161.438 151.959 161.428 151.659V94.4231L151.97 108.453L142.401 94.4231V151.659C142.391 151.96 142.442 152.26 142.55 152.541C142.658 152.823 142.821 153.08 143.031 153.297C143.24 153.514 143.49 153.688 143.767 153.807C144.044 153.926 144.343 153.989 144.644 153.991H133.043C133.351 153.997 133.658 153.941 133.944 153.826C134.23 153.711 134.49 153.539 134.708 153.322C134.926 153.104 135.098 152.844 135.213 152.558C135.328 152.273 135.384 151.967 135.378 151.659V85.2771C135.385 84.9683 135.33 84.6613 135.216 84.3744C135.101 84.0876 134.929 83.8269 134.711 83.6081C134.493 83.3893 134.233 83.2169 133.946 83.1013C133.659 82.9858 133.352 82.9294 133.043 82.9357H143.115L151.97 95.8498L160.723 82.9357H170.795C170.493 82.9392 170.195 83.0029 169.918 83.1231C169.64 83.2432 169.39 83.4174 169.181 83.6355C168.972 83.8535 168.809 84.1111 168.701 84.3929C168.593 84.6748 168.542 84.9754 168.552 85.2771V151.659C168.542 151.96 168.593 152.26 168.701 152.541C168.809 152.823 168.972 153.08 169.182 153.297C169.391 153.514 169.641 153.688 169.918 153.807C170.195 153.926 170.494 153.989 170.795 153.991V153.991Z" fill="white"/>
<path d="M199.18 92.3286C199.188 92.0331 199.135 91.7391 199.026 91.4645C198.916 91.1898 198.752 90.9402 198.543 90.7307C198.335 90.5213 198.085 90.3563 197.811 90.2458C197.536 90.1353 197.242 90.0816 196.946 90.0878H180.153V108.38H194.703V115.495H180.153V146.903H196.974C197.269 146.909 197.562 146.855 197.836 146.745C198.11 146.636 198.359 146.471 198.567 146.263C198.776 146.054 198.941 145.806 199.051 145.532C199.161 145.259 199.214 144.966 199.208 144.671V154.018H170.823C171.132 154.026 171.439 153.971 171.726 153.856C172.014 153.742 172.275 153.57 172.494 153.352C172.713 153.134 172.885 152.874 173.001 152.588C173.117 152.302 173.173 151.995 173.167 151.686V85.2771C173.173 84.9679 173.117 84.6606 173.001 84.3738C172.885 84.0869 172.713 83.8263 172.494 83.6076C172.275 83.3889 172.014 83.2167 171.727 83.1012C171.44 82.9858 171.132 82.9295 170.823 82.9357H199.208L199.18 92.3286Z" fill="white"/>
</g>
<defs>
<clipPath id="clip0_216_552">
<rect width="255" height="154" fill="white"/>
</clipPath>
</defs>
</svg>
