<svg width="32" height="31" viewBox="0 0 32 31" fill="none" xmlns="http://www.w3.org/2000/svg">
<path d="M22.3175 2.55186C24.0082 2.5569 25.6282 3.23077 26.8237 4.42629C28.0192 5.6218 28.6931 7.24182 28.6981 8.93252V21.6925C28.6931 23.3832 28.0192 25.0032 26.8237 26.1987C25.6282 27.3942 24.0082 28.0681 22.3175 28.0731H9.55752C7.86682 28.0681 6.2468 27.3942 5.05129 26.1987C3.85577 25.0032 3.1819 23.3832 3.17686 21.6925V8.93252C3.1819 7.24182 3.85577 5.6218 5.05129 4.42629C6.2468 3.23077 7.86682 2.5569 9.55752 2.55186H22.3175V2.55186ZM22.3175 0H9.55752C4.64453 0 0.625 4.01953 0.625 8.93252V21.6925C0.625 26.6055 4.64453 30.625 9.55752 30.625H22.3175C27.2305 30.625 31.25 26.6055 31.25 21.6925V8.93252C31.25 4.01953 27.2305 0 22.3175 0V0Z" fill="white" fill-opacity="1"/>
<path d="M24.2314 8.93258C23.8529 8.93258 23.4828 8.82033 23.1681 8.61001C22.8533 8.39969 22.608 8.10075 22.4631 7.751C22.3182 7.40125 22.2803 7.0164 22.3542 6.64511C22.428 6.27382 22.6103 5.93276 22.878 5.66508C23.1457 5.39739 23.4867 5.2151 23.858 5.14124C24.2293 5.06739 24.6142 5.10529 24.9639 5.25016C25.3137 5.39503 25.6126 5.64036 25.8229 5.95513C26.0333 6.26989 26.1455 6.63996 26.1455 7.01852C26.1461 7.27003 26.0969 7.51917 26.0009 7.75164C25.9049 7.98411 25.7639 8.19533 25.5861 8.37317C25.4083 8.55102 25.197 8.69199 24.9646 8.78798C24.7321 8.88398 24.483 8.93312 24.2314 8.93258V8.93258Z" fill="white" fill-opacity="1"/>
<path d="M15.9375 10.2081C16.947 10.2081 17.9339 10.5075 18.7733 11.0684C19.6128 11.6292 20.267 12.4264 20.6533 13.3591C21.0397 14.2918 21.1408 15.3182 20.9438 16.3083C20.7469 17.2985 20.2607 18.208 19.5468 18.9219C18.833 19.6357 17.9235 20.1219 16.9333 20.3188C15.9432 20.5158 14.9168 20.4147 13.9841 20.0283C13.0514 19.642 12.2542 18.9878 11.6934 18.1484C11.1325 17.3089 10.8331 16.3221 10.8331 15.3125C10.8346 13.9592 11.3728 12.6617 12.3297 11.7047C13.2867 10.7478 14.5842 10.2096 15.9375 10.2081V10.2081ZM15.9375 7.65625C14.4232 7.65625 12.943 8.10528 11.6839 8.94656C10.4249 9.78784 9.44353 10.9836 8.86405 12.3826C8.28457 13.7816 8.13295 15.321 8.42837 16.8062C8.72378 18.2913 9.45297 19.6555 10.5237 20.7263C11.5945 21.797 12.9587 22.5262 14.4438 22.8216C15.929 23.1171 17.4684 22.9654 18.8674 22.386C20.2664 21.8065 21.4622 20.8251 22.3034 19.5661C23.1447 18.307 23.5937 16.8268 23.5937 15.3125C23.5937 13.2819 22.7871 11.3345 21.3513 9.89871C19.9155 8.46289 17.9681 7.65625 15.9375 7.65625V7.65625Z" fill="white" fill-opacity="1"/>
</svg>
