<svg width="263" height="255" viewBox="0 0 263 255" fill="none" xmlns="http://www.w3.org/2000/svg">
<path fill-rule="evenodd" clip-rule="evenodd" d="M231.474 3.3899C225.518 1.20548 219.185 0.235786 212.848 0.537943C206.511 0.840101 200.299 2.40802 194.578 5.14925C189.616 7.52713 187.522 13.4756 189.901 18.4355C192.28 23.3954 198.231 25.4885 203.193 23.1106C206.513 21.5198 210.119 20.6096 213.797 20.4342C217.476 20.2588 221.152 20.8217 224.609 22.0896C228.066 23.3574 231.232 25.3043 233.922 27.8146C236.611 30.325 238.768 33.3478 240.267 36.7042C241.766 40.0606 242.575 43.6826 242.648 47.3563C242.721 51.03 242.055 54.6811 240.691 58.0939C239.326 61.5068 237.29 64.6124 234.703 67.2269C232.168 69.7882 229.154 71.8273 225.832 73.2287C225.739 73.2595 225.582 73.3097 225.361 73.3741C224.809 73.535 223.861 73.7841 222.532 74.0372C219.877 74.5428 215.688 75.0675 210.082 74.9315C198.918 74.6607 181.849 71.7635 159.828 60.4953C135.092 47.8377 114.442 44.4901 99.6211 44.4901C92.2392 44.4901 86.3705 45.3202 82.2305 46.1979C80.1613 46.6366 78.5248 47.0869 77.3469 47.451C76.7579 47.6331 76.2834 47.7938 75.9266 47.9207C75.7481 47.9842 75.5991 48.0393 75.4798 48.0844C75.4387 48.1 75.4011 48.1144 75.367 48.1275C75.3517 48.1334 75.3371 48.1391 75.3232 48.1445L75.2618 48.1687L75.2353 48.1792L75.2231 48.184C75.2173 48.1864 75.2116 48.1886 78.9221 57.4317L75.2116 48.1886L74.9088 48.3101L74.6146 48.451C63.4719 53.7907 54.8514 63.2616 50.5889 74.8526C48.1028 81.6128 47.2138 88.7824 47.9036 95.8217C45.9137 96.7701 43.6173 97.9706 41.1295 99.4621C33.313 104.148 23.4287 111.816 15.3315 123.719C-1.29505 148.16 -8.51914 187.515 17.8591 248.509L20.4572 254.516H69.7758L68.167 243.172L68.1664 243.168L68.1663 243.167L68.1659 243.164L68.1652 243.159L68.1578 243.104C68.1492 243.039 68.1349 242.929 68.1162 242.776C68.0788 242.47 68.0239 241.997 67.9619 241.379C67.8376 240.141 67.6862 238.34 67.588 236.167C67.3891 231.766 67.4221 226.104 68.2361 220.607C69.0738 214.949 70.6037 210.428 72.7063 207.539C74.4459 205.15 76.6198 203.699 80.5567 203.699C84.5303 203.699 86.9527 205.194 88.9509 207.775C91.2759 210.778 93.0283 215.392 94.1273 221.047C95.1986 226.561 95.4927 232.23 95.4973 236.627C95.4996 238.799 95.4314 240.599 95.3644 241.835C95.331 242.452 95.2981 242.925 95.2749 243.229C95.2632 243.381 95.2541 243.491 95.2485 243.556L95.2439 243.61L95.2434 243.615L95.243 243.619L95.2426 243.623L94.2013 254.516H152.862L152.507 244.221L152.507 244.217L152.507 244.214L152.506 244.178C152.505 244.157 152.505 244.128 152.504 244.091C152.503 244.059 152.502 244.022 152.501 243.978C152.496 243.791 152.49 243.498 152.484 243.104C152.473 242.316 152.464 241.126 152.476 239.58C152.5 236.487 152.608 231.976 152.946 226.408C153.623 215.252 155.219 199.967 158.874 183.41C166.113 150.61 180.965 114.9 210.542 94.8627C217.196 94.9576 222.478 94.3246 226.262 93.604C228.241 93.2272 229.806 92.827 230.941 92.4961C231.508 92.3307 231.968 92.1826 232.318 92.0635C232.493 92.0039 232.64 91.9515 232.76 91.9078C232.82 91.886 232.873 91.8663 232.919 91.8489L232.983 91.8247L233.011 91.814L233.024 91.8089C233.03 91.8065 233.036 91.8041 229.424 82.5221L233.036 91.8041L233.13 91.7675L233.224 91.729C239.088 89.311 244.408 85.743 248.869 81.2356C253.331 76.7282 256.842 71.3728 259.196 65.4859C261.549 59.5989 262.698 53.3 262.572 46.9619C262.446 40.6237 261.05 34.3753 258.465 28.5859C255.88 22.7966 252.159 17.5843 247.523 13.2568C242.887 8.92924 237.43 5.57432 231.474 3.3899ZM183.814 91.0643C174.018 88.5224 162.949 84.4693 150.747 78.2258C128.86 67.0257 111.327 64.4089 99.6211 64.4089C93.7396 64.4089 89.2587 65.0699 86.3651 65.6833C84.9174 65.9902 83.8662 66.2854 83.2354 66.4805C83.0638 66.5335 82.9235 66.5791 82.8148 66.6155C76.5493 69.748 71.711 75.15 69.2931 81.7249C66.8221 88.4439 67.0728 95.8601 69.9919 102.398C72.9112 108.936 78.2701 114.081 84.9316 116.738C91.5935 119.394 99.0306 119.351 105.661 116.617C110.748 114.52 116.573 116.941 118.672 122.026C120.77 127.111 118.347 132.933 113.26 135.031C101.837 139.741 89.0249 139.815 77.5475 135.238C67.6411 131.288 59.4015 124.141 54.0936 115.007C53.2389 115.463 52.33 115.974 51.3796 116.544C45.3777 120.142 37.8974 125.971 31.8105 134.919C20.4902 151.56 12.2544 181.679 33.6374 234.598H47.5942C47.4755 229.791 47.6182 223.8 48.523 217.69C49.5665 210.643 51.7594 202.46 56.5921 195.821C61.7879 188.682 69.7619 183.781 80.5567 183.781C91.3147 183.781 99.3339 188.638 104.712 195.585C109.762 202.11 112.32 210.201 113.69 217.25C114.912 223.542 115.32 229.715 115.406 234.598H132.636C132.71 231.904 132.839 228.747 133.055 225.202C133.777 213.308 135.478 196.947 139.414 179.119C145.817 150.11 158.466 115.734 183.814 91.0643Z" fill="black"/>
</svg>
